<?xml version="1.0" standalone="no"?>
<!DOCTYPE svg PUBLIC "-//W3C//DTD SVG 20010904//EN"
 "http://www.w3.org/TR/2001/REC-SVG-20010904/DTD/svg10.dtd">
<svg version="1.0" xmlns="http://www.w3.org/2000/svg"
 width="225.000000pt" height="225.000000pt" viewBox="0 0 225.000000 225.000000"
 preserveAspectRatio="xMidYMid meet">

<g transform="translate(0.000000,225.000000) scale(0.100000,-0.100000)"
fill="#000000" stroke="none">
<path d="M423 1954 c-17 -8 -38 -23 -46 -32 -22 -25 -97 -196 -97 -221 0 -30
24 -83 46 -103 11 -9 238 -119 507 -244 268 -125 485 -229 483 -232 -3 -2
-222 -105 -488 -229 -266 -124 -493 -234 -505 -245 -30 -28 -47 -82 -38 -121
11 -56 89 -200 118 -222 64 -46 63 -46 812 304 380 177 698 330 709 339 33 30
46 77 46 169 0 103 -11 152 -42 180 -32 30 -1396 665 -1438 670 -20 2 -48 -3
-67 -13z"/>
</g>
</svg>
